<?xml version="1.0" standalone="no"?>
<!DOCTYPE svg PUBLIC "-//W3C//DTD SVG 20010904//EN"
 "http://www.w3.org/TR/2001/REC-SVG-20010904/DTD/svg10.dtd">
<svg version="1.0" xmlns="http://www.w3.org/2000/svg"
 width="260.000000pt" height="260.000000pt" viewBox="0 0 260.000000 260.000000"
 preserveAspectRatio="xMidYMid meet">
<metadata>
Created by potrace 1.11, written by Peter Selinger 2001-2013
</metadata>
<g transform="translate(0.000000,260.000000) scale(0.100000,-0.100000)"
fill="#000000" stroke="none">
<path d="M1255 2578 c-4 -13 -9 -30 -10 -38 -2 -8 -10 -30 -19 -50 -16 -40
-28 -70 -32 -85 -1 -5 -12 -36 -23 -67 -11 -32 -17 -58 -13 -58 4 0 2 -4 -4
-8 -10 -7 -38 -81 -71 -187 -8 -27 -20 -53 -27 -57 -6 -4 -8 -8 -4 -8 4 0 -4
-30 -18 -67 -14 -38 -25 -69 -25 -70 1 -4 -4 -16 -53 -150 -24 -67 -47 -136
-51 -152 -4 -17 -12 -32 -18 -32 -7 -1 -64 -3 -127 -4 -63 -1 -119 -3 -125 -4
-6 -1 -10 -109 -9 -303 0 -167 -1 -308 -4 -315 -3 -11 -32 -10 -50 1 -4 2 -14
1 -22 -4 -9 -5 -19 -5 -27 2 -7 6 -13 6 -13 1 0 -10 -41 -10 -58 1 -7 4 -12 3
-12 -2 0 -5 -15 -7 -32 -5 -44 4 -48 4 -86 0 -18 -2 -35 0 -38 4 -2 4 -18 4
-34 -1 -19 -5 -30 -5 -30 1 0 6 -6 7 -12 2 -18 -10 -91 -11 -105 0 -8 6 -13 6
-13 0 0 -11 -29 -11 -48 1 -6 4 -12 3 -12 -3 0 -6 -7 -8 -15 -5 -13 5 -15 -16
-15 -153 l0 -158 310 0 c198 0 311 -4 313 -10 2 -5 3 -142 3 -303 l-1 -292
156 0 156 0 0 84 c0 46 3 88 7 95 4 6 3 11 -1 11 -10 0 -8 94 2 110 3 5 3 10
-2 10 -12 0 -10 290 2 291 6 1 94 2 198 4 128 1 187 -2 187 -9 0 -8 3 -8 8 -1
9 14 145 15 154 1 5 -7 8 -7 8 -1 0 15 150 15 150 1 0 -8 3 -8 8 -1 9 14 145
15 154 1 6 -8 8 -8 8 0 0 12 78 13 96 2 6 -4 14 -4 18 0 4 3 26 7 49 8 44 2
77 -20 69 -45 -2 -7 0 -16 5 -20 8 -5 33 -77 34 -98 0 -5 4 -12 8 -18 5 -5 12
-23 16 -40 10 -36 10 -36 19 -57 4 -9 9 -25 11 -35 2 -10 4 -19 5 -20 2 -2 3
-6 5 -10 1 -5 6 -19 12 -33 6 -14 23 -63 38 -110 15 -47 32 -90 36 -96 5 -6 6
-14 2 -17 -3 -4 73 -7 170 -7 l176 0 -9 30 c-5 16 -11 34 -15 40 -3 5 -8 20
-10 32 -3 13 -9 32 -14 43 -13 28 -42 107 -47 125 -5 22 -63 192 -74 215 -5
11 -19 49 -30 85 -21 63 -26 76 -29 92 -1 4 -11 29 -22 55 -12 27 -28 71 -36
98 -8 28 -20 56 -25 63 -6 6 -8 12 -5 12 3 0 -5 27 -18 59 -13 33 -20 62 -17
65 3 3 0 6 -6 6 -7 0 -11 3 -10 8 2 12 -14 66 -25 80 -5 6 -7 12 -4 12 3 0 -6
28 -20 62 -13 35 -25 68 -27 73 -1 6 -4 15 -7 20 -4 6 -10 24 -14 40 -10 37
-9 34 -23 68 -7 16 -12 31 -12 34 0 6 -31 92 -93 258 -16 44 -30 85 -32 90 -1
6 -5 18 -8 28 -4 9 -10 25 -14 35 -3 9 -7 23 -9 31 -1 7 -12 37 -24 66 -12 29
-23 59 -24 66 -2 8 -6 21 -9 29 -4 8 -21 56 -37 105 -17 50 -37 104 -45 122
-8 17 -15 36 -15 41 0 6 -5 23 -12 39 -7 15 -13 33 -13 38 -1 6 -7 21 -12 35
-25 59 -65 176 -66 188 0 9 -49 12 -208 12 -206 0 -207 0 -214 -22z m249 -415
c19 -57 32 -103 28 -103 -4 0 -2 -4 3 -8 6 -4 25 -52 43 -107 18 -55 36 -107
39 -115 3 -8 7 -19 9 -25 9 -31 65 -189 71 -198 4 -6 7 -20 8 -31 3 -28 38
-120 48 -124 4 -2 5 -8 2 -12 -3 -5 -1 -17 4 -27 5 -10 15 -38 22 -63 7 -25
16 -49 19 -55 13 -19 38 -103 32 -109 -3 -3 0 -6 6 -6 7 0 11 -3 10 -7 -1 -7
8 -42 27 -103 1 -3 5 -12 8 -20 19 -43 35 -100 29 -100 -4 0 0 -5 8 -10 12 -7
10 -11 -10 -18 -14 -6 -29 -6 -34 -1 -6 5 -15 4 -22 -2 -9 -7 -19 -7 -33 1
-12 6 -21 7 -21 3 0 -4 -16 -8 -35 -8 -19 0 -35 2 -35 5 0 7 -66 4 -79 -5 -6
-3 -11 -1 -11 5 0 8 -6 8 -20 0 -14 -8 -20 -8 -20 0 0 7 -6 8 -19 0 -14 -7
-22 -7 -26 0 -5 8 -11 8 -20 0 -10 -8 -19 -8 -34 0 -12 6 -21 7 -21 3 0 -4
-16 -8 -35 -8 -19 0 -35 2 -35 5 0 7 -66 4 -79 -5 -6 -3 -11 -1 -11 5 0 8 -6
8 -20 0 -14 -8 -26 -8 -40 0 -11 6 -20 7 -20 2 0 -4 -15 -7 -32 -5 -65 7 -94
7 -111 0 -9 -3 -17 -2 -17 4 0 6 -6 6 -18 0 -19 -10 -62 -4 -62 8 -1 15 96
297 103 302 5 3 7 8 6 10 -5 7 23 99 32 105 5 3 9 15 9 28 0 12 3 26 8 30 4 4
7 11 7 14 1 20 102 308 110 314 6 4 6 8 1 8 -5 0 -3 7 4 15 7 8 10 15 6 15 -3
0 4 24 15 53 11 28 20 52 19 52 -2 0 8 30 25 76 8 20 11 39 8 43 -4 3 -1 6 5
6 7 0 11 3 10 8 -2 11 14 66 23 77 4 6 8 15 8 20 4 31 56 174 62 167 4 -4 23
-53 43 -109z"/>
</g>
</svg>
